<svg xmlns="http://www.w3.org/2000/svg" xmlns:xlink="http://www.w3.org/1999/xlink" width="500" zoomAndPan="magnify" viewBox="0 0 375 374.999991" height="500" preserveAspectRatio="xMidYMid meet" version="1.0"><defs><g/><clipPath id="defb742972"><path d="M 70.148438 141.921875 L 154.855469 141.921875 L 154.855469 218.011719 L 70.148438 218.011719 Z M 70.148438 141.921875 " clip-rule="nonzero"/></clipPath><clipPath id="68510901d3"><path d="M 149.242188 218.011719 L 75.757812 218.011719 C 72.667969 218.011719 70.148438 215.492188 70.148438 212.402344 L 70.148438 147.535156 C 70.148438 144.445312 72.667969 141.921875 75.757812 141.921875 L 149.242188 141.921875 C 152.335938 141.921875 154.855469 144.445312 154.855469 147.535156 L 154.855469 212.402344 C 154.855469 215.492188 152.335938 218.011719 149.242188 218.011719 Z M 149.242188 218.011719 " clip-rule="nonzero"/></clipPath><clipPath id="9eab2452f8"><path d="M 70.148438 156.988281 L 154.855469 156.988281 L 154.855469 233.078125 L 70.148438 233.078125 Z M 70.148438 156.988281 " clip-rule="nonzero"/></clipPath><clipPath id="b3c92c6137"><path d="M 149.242188 233.078125 L 75.757812 233.078125 C 72.667969 233.078125 70.148438 230.554688 70.148438 227.464844 L 70.148438 162.597656 C 70.148438 159.507812 72.667969 156.988281 75.757812 156.988281 L 149.242188 156.988281 C 152.335938 156.988281 154.855469 159.507812 154.855469 162.597656 L 154.855469 227.464844 C 154.855469 230.554688 152.335938 233.078125 149.242188 233.078125 Z M 149.242188 233.078125 " clip-rule="nonzero"/></clipPath><clipPath id="dc91b2df09"><path d="M 90.261719 163.824219 L 98.996094 163.824219 L 98.996094 172.5625 L 90.261719 172.5625 Z M 90.261719 163.824219 " clip-rule="nonzero"/></clipPath><clipPath id="faeb815ce5"><path d="M 94.628906 163.824219 C 92.214844 163.824219 90.261719 165.78125 90.261719 168.191406 C 90.261719 170.605469 92.214844 172.5625 94.628906 172.5625 C 97.039062 172.5625 98.996094 170.605469 98.996094 168.191406 C 98.996094 165.78125 97.039062 163.824219 94.628906 163.824219 Z M 94.628906 163.824219 " clip-rule="nonzero"/></clipPath><clipPath id="c2bc62833c"><path d="M 126.003906 163.824219 L 134.742188 163.824219 L 134.742188 172.5625 L 126.003906 172.5625 Z M 126.003906 163.824219 " clip-rule="nonzero"/></clipPath><clipPath id="960abd22a6"><path d="M 130.371094 163.824219 C 127.960938 163.824219 126.003906 165.78125 126.003906 168.191406 C 126.003906 170.605469 127.960938 172.5625 130.371094 172.5625 C 132.785156 172.5625 134.742188 170.605469 134.742188 168.191406 C 134.742188 165.78125 132.785156 163.824219 130.371094 163.824219 Z M 130.371094 163.824219 " clip-rule="nonzero"/></clipPath><clipPath id="187108ac45"><path d="M 91.011719 178.871094 L 133.761719 178.871094 L 133.761719 200.621094 L 91.011719 200.621094 Z M 91.011719 178.871094 " clip-rule="nonzero"/></clipPath></defs><rect x="-37.5" width="450" fill="#ffffff" y="-37.499999" height="449.999989" fill-opacity="1"/><rect x="-37.5" width="450" fill="#fafafa" y="-37.499999" height="449.999989" fill-opacity="1"/><g clip-path="url(#defb742972)"><g clip-path="url(#68510901d3)"><path fill="#94c7fd" d="M 70.148438 141.921875 L 154.855469 141.921875 L 154.855469 218.011719 L 70.148438 218.011719 Z M 70.148438 141.921875 " fill-opacity="1" fill-rule="nonzero"/></g></g><g clip-path="url(#9eab2452f8)"><g clip-path="url(#b3c92c6137)"><path fill="#397df1" d="M 70.148438 156.988281 L 154.855469 156.988281 L 154.855469 233.078125 L 70.148438 233.078125 Z M 70.148438 156.988281 " fill-opacity="1" fill-rule="nonzero"/></g></g><g clip-path="url(#dc91b2df09)"><g clip-path="url(#faeb815ce5)"><path fill="#94c7fd" d="M 90.261719 163.824219 L 98.996094 163.824219 L 98.996094 172.5625 L 90.261719 172.5625 Z M 90.261719 163.824219 " fill-opacity="1" fill-rule="nonzero"/></g></g><g clip-path="url(#c2bc62833c)"><g clip-path="url(#960abd22a6)"><path fill="#94c7fd" d="M 126.003906 163.824219 L 134.742188 163.824219 L 134.742188 172.5625 L 126.003906 172.5625 Z M 126.003906 163.824219 " fill-opacity="1" fill-rule="nonzero"/></g></g><g clip-path="url(#187108ac45)"><path fill="#ffffff" d="M 112.390625 200.621094 C 111.171875 200.621094 109.96875 200.511719 108.769531 200.300781 C 107.574219 200.09375 106.402344 199.78125 105.257812 199.367188 C 104.109375 198.953125 103.007812 198.445312 101.949219 197.839844 C 100.886719 197.234375 99.886719 196.542969 98.941406 195.765625 C 97.996094 194.984375 97.125 194.132812 96.320312 193.203125 C 95.519531 192.273438 94.800781 191.28125 94.167969 190.226562 C 93.53125 189.171875 92.988281 188.070312 92.535156 186.921875 C 92.085938 185.773438 91.730469 184.59375 91.476562 183.386719 C 91.421875 183.113281 91.398438 182.835938 91.402344 182.554688 C 91.40625 182.277344 91.441406 182 91.507812 181.730469 C 91.574219 181.460938 91.667969 181.199219 91.792969 180.949219 C 91.914062 180.699219 92.0625 180.464844 92.234375 180.25 C 92.410156 180.035156 92.605469 179.839844 92.820312 179.667969 C 93.035156 179.496094 93.269531 179.351562 93.515625 179.230469 C 93.765625 179.109375 94.023438 179.019531 94.292969 178.960938 C 94.558594 178.898438 94.832031 178.871094 95.105469 178.871094 C 95.53125 178.871094 95.941406 178.945312 96.339844 179.09375 C 96.742188 179.238281 97.105469 179.449219 97.433594 179.722656 C 97.761719 179.996094 98.039062 180.320312 98.257812 180.6875 C 98.476562 181.058594 98.632812 181.453125 98.71875 181.878906 C 98.886719 182.667969 99.117188 183.433594 99.414062 184.183594 C 99.710938 184.933594 100.070312 185.648438 100.484375 186.335938 C 100.902344 187.023438 101.371094 187.667969 101.898438 188.273438 C 102.421875 188.878906 102.992188 189.433594 103.609375 189.941406 C 104.226562 190.449219 104.882812 190.898438 105.574219 191.292969 C 106.265625 191.683594 106.988281 192.015625 107.734375 192.285156 C 108.480469 192.554688 109.246094 192.757812 110.027344 192.894531 C 110.808594 193.03125 111.597656 193.097656 112.390625 193.097656 C 113.179688 193.097656 113.96875 193.027344 114.75 192.890625 C 115.53125 192.753906 116.292969 192.550781 117.042969 192.285156 C 117.789062 192.015625 118.507812 191.683594 119.199219 191.289062 C 119.894531 190.894531 120.546875 190.445312 121.164062 189.941406 C 121.78125 189.433594 122.351562 188.878906 122.875 188.273438 C 123.398438 187.667969 123.871094 187.019531 124.285156 186.335938 C 124.703125 185.648438 125.058594 184.929688 125.355469 184.183594 C 125.652344 183.433594 125.886719 182.667969 126.054688 181.878906 C 126.140625 181.453125 126.292969 181.058594 126.511719 180.6875 C 126.734375 180.320312 127.007812 179.996094 127.335938 179.722656 C 127.664062 179.449219 128.03125 179.238281 128.429688 179.09375 C 128.828125 178.945312 129.242188 178.871094 129.667969 178.871094 C 129.941406 178.871094 130.210938 178.898438 130.480469 178.960938 C 130.746094 179.019531 131.003906 179.109375 131.253906 179.230469 C 131.5 179.351562 131.734375 179.496094 131.949219 179.667969 C 132.167969 179.839844 132.363281 180.035156 132.535156 180.25 C 132.707031 180.464844 132.855469 180.699219 132.980469 180.949219 C 133.101562 181.199219 133.195312 181.460938 133.261719 181.730469 C 133.328125 182 133.363281 182.277344 133.367188 182.554688 C 133.375 182.835938 133.347656 183.113281 133.292969 183.386719 C 133.039062 184.59375 132.6875 185.773438 132.234375 186.921875 C 131.785156 188.070312 131.242188 189.171875 130.605469 190.226562 C 129.972656 191.28125 129.253906 192.273438 128.453125 193.203125 C 127.652344 194.132812 126.777344 194.984375 125.832031 195.761719 C 124.890625 196.542969 123.886719 197.234375 122.828125 197.839844 C 121.769531 198.441406 120.664062 198.953125 119.519531 199.367188 C 118.375 199.78125 117.203125 200.089844 116.007812 200.300781 C 114.808594 200.511719 113.605469 200.621094 112.390625 200.621094 Z M 112.390625 200.621094 " fill-opacity="1" fill-rule="nonzero"/></g><g fill="#397df1" fill-opacity="1"><g transform="translate(178.499993, 177.727732)"><g><path d="M 20.550781 -29.058594 L 20.550781 -17.851562 L 9.589844 -17.851562 L 9.589844 -29.058594 L 3.320312 -29.058594 L 3.320312 0 L 9.589844 0 L 9.589844 -11.996094 L 20.550781 -11.996094 L 20.550781 0 L 26.816406 0 L 26.816406 -29.058594 Z M 20.550781 -29.058594 "/></g></g></g><g fill="#397df1" fill-opacity="1"><g transform="translate(208.678274, 177.727732)"><g><path d="M 21.171875 -22.417969 L 20.550781 -20.300781 C 18.597656 -22.003906 16.066406 -23.039062 13.160156 -23.039062 C 6.433594 -23.039062 1.410156 -17.976562 1.410156 -11.207031 C 1.410156 -4.441406 6.433594 0.664062 13.160156 0.664062 C 16.023438 0.664062 18.515625 -0.332031 20.425781 -2.035156 L 20.964844 0 L 25.699219 0 L 25.699219 -22.417969 Z M 13.660156 -5.066406 C 10.128906 -5.066406 7.554688 -7.722656 7.554688 -11.207031 C 7.554688 -14.738281 10.128906 -17.351562 13.660156 -17.351562 C 17.1875 -17.351562 19.761719 -14.738281 19.761719 -11.207031 C 19.761719 -7.679688 17.1875 -5.066406 13.660156 -5.066406 Z M 13.660156 -5.066406 "/></g></g></g><g fill="#397df1" fill-opacity="1"><g transform="translate(237.320671, 177.727732)"><g><path d="M 15.109375 -23.039062 C 12.328125 -23.039062 9.839844 -22.042969 7.929688 -20.34375 L 6.890625 -22.417969 L 2.90625 -22.417969 L 2.90625 8.09375 L 8.96875 8.09375 L 8.96875 -1.203125 C 10.667969 0 12.785156 0.707031 15.109375 0.707031 C 21.878906 0.707031 26.859375 -4.402344 26.859375 -11.207031 C 26.859375 -17.976562 21.878906 -23.039062 15.109375 -23.039062 Z M 14.613281 -5.066406 C 11.085938 -5.066406 8.511719 -7.679688 8.511719 -11.207031 C 8.511719 -14.695312 11.085938 -17.351562 14.613281 -17.351562 C 18.140625 -17.351562 20.714844 -14.695312 20.714844 -11.207031 C 20.714844 -7.679688 18.140625 -5.066406 14.613281 -5.066406 Z M 14.613281 -5.066406 "/></g></g></g><g fill="#397df1" fill-opacity="1"><g transform="translate(265.630974, 177.727732)"><g><path d="M 15.109375 -23.039062 C 12.328125 -23.039062 9.839844 -22.042969 7.929688 -20.34375 L 6.890625 -22.417969 L 2.90625 -22.417969 L 2.90625 8.09375 L 8.96875 8.09375 L 8.96875 -1.203125 C 10.667969 0 12.785156 0.707031 15.109375 0.707031 C 21.878906 0.707031 26.859375 -4.402344 26.859375 -11.207031 C 26.859375 -17.976562 21.878906 -23.039062 15.109375 -23.039062 Z M 14.613281 -5.066406 C 11.085938 -5.066406 8.511719 -7.679688 8.511719 -11.207031 C 8.511719 -14.695312 11.085938 -17.351562 14.613281 -17.351562 C 18.140625 -17.351562 20.714844 -14.695312 20.714844 -11.207031 C 20.714844 -7.679688 18.140625 -5.066406 14.613281 -5.066406 Z M 14.613281 -5.066406 "/></g></g></g><g fill="#397df1" fill-opacity="1"><g transform="translate(293.941277, 177.727732)"><g><path d="M 18.390625 -22.417969 L 12.785156 -8.59375 L 6.808594 -22.417969 L 0.207031 -22.417969 L 9.714844 -1.703125 L 9.632812 -1.535156 C 8.261719 1.867188 7.515625 2.65625 4.566406 2.65625 L 2.492188 2.65625 L 2.492188 8.09375 L 4.980469 8.09375 C 10.003906 8.09375 12.371094 5.8125 15.070312 -0.289062 L 24.824219 -22.417969 Z M 18.390625 -22.417969 "/></g></g></g><g fill="#397df1" fill-opacity="1"><g transform="translate(178.499993, 226.597941)"><g><path d="M 12.953125 0.582031 C 18.972656 0.582031 23.953125 -2.449219 23.953125 -8.71875 C 23.953125 -15.234375 18.390625 -16.605469 13.992188 -17.726562 C 10.875 -18.472656 8.386719 -19.097656 8.386719 -21.128906 C 8.386719 -23.039062 10.421875 -23.914062 12.453125 -23.914062 C 14.820312 -23.914062 16.894531 -22.75 16.894531 -20.21875 L 23.082031 -20.21875 C 23.082031 -26.03125 19.304688 -29.601562 12.621094 -29.601562 C 6.1875 -29.601562 2.074219 -26.445312 2.074219 -20.882812 C 2.074219 -14.613281 7.390625 -13.324219 11.789062 -12.246094 C 14.945312 -11.539062 17.601562 -10.917969 17.601562 -8.636719 C 17.601562 -6.476562 15.277344 -5.230469 12.910156 -5.230469 C 10.335938 -5.230469 8.011719 -6.601562 8.011719 -9.382812 L 1.660156 -9.382812 C 1.660156 -3.15625 6.269531 0.582031 12.953125 0.582031 Z M 12.953125 0.582031 "/></g></g></g><g fill="#397df1" fill-opacity="1"><g transform="translate(204.195125, 226.597941)"><g><path d="M 15.734375 -22.914062 C 13.035156 -22.914062 10.667969 -21.917969 8.96875 -20.300781 L 8.96875 -30.472656 L 2.90625 -30.472656 L 2.90625 0 L 8.96875 0 L 8.96875 -11.75 C 8.96875 -15.402344 10.960938 -17.601562 13.992188 -17.601562 C 16.6875 -17.601562 17.894531 -15.941406 17.894531 -12.578125 L 17.894531 0 L 23.953125 0 L 23.953125 -13.617188 C 23.953125 -19.304688 20.796875 -22.914062 15.734375 -22.914062 Z M 15.734375 -22.914062 "/></g></g></g><g fill="#397df1" fill-opacity="1"><g transform="translate(230.803495, 226.597941)"><g><path d="M 13.535156 0.664062 C 20.464844 0.664062 25.65625 -4.441406 25.65625 -11.207031 C 25.65625 -17.976562 20.464844 -23.039062 13.535156 -23.039062 C 6.601562 -23.039062 1.410156 -17.976562 1.410156 -11.207031 C 1.410156 -4.441406 6.601562 0.664062 13.535156 0.664062 Z M 13.535156 -5.066406 C 10.046875 -5.066406 7.554688 -7.554688 7.554688 -11.207031 C 7.554688 -14.820312 10.046875 -17.351562 13.535156 -17.351562 C 17.019531 -17.351562 19.511719 -14.820312 19.511719 -11.207031 C 19.511719 -7.554688 17.019531 -5.066406 13.535156 -5.066406 Z M 13.535156 -5.066406 "/></g></g></g><g fill="#397df1" fill-opacity="1"><g transform="translate(257.909993, 226.597941)"><g><path d="M 15.109375 -23.039062 C 12.328125 -23.039062 9.839844 -22.042969 7.929688 -20.34375 L 6.890625 -22.417969 L 2.90625 -22.417969 L 2.90625 8.09375 L 8.96875 8.09375 L 8.96875 -1.203125 C 10.667969 0 12.785156 0.707031 15.109375 0.707031 C 21.878906 0.707031 26.859375 -4.402344 26.859375 -11.207031 C 26.859375 -17.976562 21.878906 -23.039062 15.109375 -23.039062 Z M 14.613281 -5.066406 C 11.085938 -5.066406 8.511719 -7.679688 8.511719 -11.207031 C 8.511719 -14.695312 11.085938 -17.351562 14.613281 -17.351562 C 18.140625 -17.351562 20.714844 -14.695312 20.714844 -11.207031 C 20.714844 -7.679688 18.140625 -5.066406 14.613281 -5.066406 Z M 14.613281 -5.066406 "/></g></g></g></svg>